<svg id="Layer_1" data-name="Layer 1" xmlns="http://www.w3.org/2000/svg" viewBox="0 0 24 24"><defs><style>.cls-1{fill:#fff;}</style></defs><path id="facebook" class="cls-1" d="M21.19,0H2.81A2.81,2.81,0,0,0,0,2.81V21.19A2.81,2.81,0,0,0,2.81,24H21.19A2.81,2.81,0,0,0,24,21.19V2.81A2.81,2.81,0,0,0,21.19,0Zm.94,21.19a1,1,0,0,1-.94.94H15.84V14.48h2.9l.48-2.9H15.84v-2a1.38,1.38,0,0,1,1.36-1.4h2V5.25H17.25a4.31,4.31,0,0,0-4.31,4.31h0v2H10.12v2.9h2.82v7.64H2.81a.93.93,0,0,1-.93-.93V2.81a.93.93,0,0,1,.93-.93H21.19a.94.94,0,0,1,.94.93Z"/></svg>