<svg id="Layer_1" data-name="Layer 1" xmlns="http://www.w3.org/2000/svg" viewBox="0 0 24 24"><defs><style>.cls-1{fill:#fff;}</style></defs><path id="Path_147" data-name="Path 147" class="cls-1" d="M20.44,0H3.56A3.58,3.58,0,0,0,0,3.56V20.44A3.58,3.58,0,0,0,3.56,24H20.44A3.58,3.58,0,0,0,24,20.44V3.56A3.58,3.58,0,0,0,20.44,0ZM22,20.44A1.56,1.56,0,0,1,20.44,22H3.56A1.56,1.56,0,0,1,2,20.44V3.56A1.56,1.56,0,0,1,3.56,2H20.44A1.56,1.56,0,0,1,22,3.56Z"/><path id="Path_148" data-name="Path 148" class="cls-1" d="M12,6a6,6,0,1,0,6,6A6,6,0,0,0,12,6Zm0,10a4,4,0,1,1,4-4A4,4,0,0,1,12,16Z"/><circle id="Ellipse_28" data-name="Ellipse 28" class="cls-1" cx="18.5" cy="5.5" r="1.5"/></svg>