<?xml version="1.0" encoding="utf-8"?>
<!-- Generator: Adobe Illustrator 25.0.1, SVG Export Plug-In . SVG Version: 6.00 Build 0)  -->
<svg version="1.1" id="Layer_1" xmlns="http://www.w3.org/2000/svg" xmlns:xlink="http://www.w3.org/1999/xlink" x="0px" y="0px"
	 viewBox="0 0 24 24" style="enable-background:new 0 0 24 24;" xml:space="preserve">
<style type="text/css">
	.st0{fill-rule:evenodd;clip-rule:evenodd;fill:#FFFFFF;}
	.st1{fill:#FFFFFF;}
</style>
<g>
	<g>
		<g>
			<path class="st0" d="M8.1,18.7V9.6h-3v9.1L8.1,18.7L8.1,18.7z M6.6,8.4c1.1,0,1.8-0.7,1.8-1.6S7.8,5.2,6.7,5.2S5,5.9,5,6.8
				C4.9,7.7,5.6,8.4,6.6,8.4L6.6,8.4L6.6,8.4z"/>
		</g>
		<g>
			<path class="st0" d="M9.8,18.7h3.1v-5c0-0.3,0-0.5,0.1-0.7c0.2-0.5,0.7-1.1,1.6-1.1c1.1,0,1.5,0.9,1.5,2v4.9h3v-5.3
				c0-2.8-1.5-4.1-3.5-4.1c-1.7,0-2.4,0.9-2.7,1.5l0,0V9.6h-3C9.9,10.4,9.8,18.7,9.8,18.7L9.8,18.7z"/>
		</g>
	</g>
	<path id="facebook" class="st1" d="M21.2,0H2.8C1.3,0,0,1.3,0,2.8c0,0,0,0,0,0v18.4C0,22.7,1.3,24,2.8,24h18.4
		c1.6,0,2.8-1.3,2.8-2.8V2.8C24,1.3,22.7,0,21.2,0z M12.9,22.1H2.8c-0.5,0-0.9-0.4-0.9-0.9l0,0V2.8c0-0.5,0.4-0.9,0.9-0.9l0,0h18.4
		c0.5,0,0.9,0.4,0.9,0.9v18.4c0,0.5-0.4,0.9-0.9,0.9h-5.4"/>
</g>
</svg>
