<svg id="Main" xmlns="http://www.w3.org/2000/svg" viewBox="0 0 24 24"><defs><style>.cls-1{fill:#3eb449;}.cls-2{fill:#231f20;}</style></defs><g id="Main-2" data-name="Main"><polygon class="cls-1" points="13.67 10.09 10.55 11.32 7.42 10.09 7.42 5.51 13.67 5.51 13.67 10.09"/><path class="cls-2" d="M10.55,3.25l2.62,1V5H7.93V4.29l2.62-1m0-.55L7.42,3.93V5.5h6.24V3.93L10.55,2.7Z"/><polygon class="cls-2" points="10.8 5.42 10.3 5.42 10.3 1.74 8.73 1.74 8.73 0 9.23 0 9.23 1.23 10.8 1.23 10.8 5.42"/><polygon class="cls-2" points="16.11 18.03 5.16 18.03 5.16 17.52 15.74 17.52 20.57 3.07 23.41 2.53 23.5 3.03 20.96 3.52 16.11 18.03"/><path class="cls-2" d="M7.31,24,4.78,21.62l2.53-2.38,2.52,2.38ZM5.53,21.62,7.32,23.3,9.1,21.62,7.32,19.94Z"/><path class="cls-2" d="M14.84,24l-2.52-2.38,2.52-2.38,2.53,2.38Zm-1.77-2.38,1.78,1.68,1.79-1.68-1.79-1.68Z"/><rect class="cls-2" x="14.87" y="5.98" width="4.85" height="0.51"/><polygon class="cls-2" points="16.75 15.48 3.36 13.93 0.5 6 6.01 6 6.01 6.51 1.22 6.51 3.73 13.46 16.81 14.98 16.75 15.48"/></g></svg>