<svg id="Main" xmlns="http://www.w3.org/2000/svg" viewBox="0 0 24 24"><defs><style>.cls-1{fill:#231f20;}.cls-2{fill:#3eb449;}</style></defs><path class="cls-1" d="M12,11.41V2.5H0v20H12V20.73h-.5V22H.5V3h11v8.41Z"/><polygon class="cls-2" points="10.5 7 10.5 11.41 9.62 11.41 9.62 20 1.5 20 1.5 7 10.5 7"/><rect class="cls-1" x="0.38" y="4.75" width="11.24" height="0.5"/><path class="cls-1" d="M6,5.82a.3.3,0,1,0,.3.3.29.29,0,0,0-.3-.3Z"/><path class="cls-1" d="M9.77.5l1.59,2H.64l1.6-2H9.77M10,0H2L0,2.5V3H12V2.5L10,0Z"/><path class="cls-1" d="M11.17,22.5l-1.33,1H2.17l-1.33-1H11.17M12,22H0v.5L2,24h8l2-1.5V22Z"/><rect class="cls-2" x="9.31" y="13" width="14.69" height="2"/><path class="cls-1" d="M23.5,11.5v9H9.81v-9H23.5M24,11H9.31V21H24V11Z"/><rect class="cls-1" x="11.33" y="15.81" width="1.47" height="0.5"/><rect class="cls-1" x="14.27" y="15.81" width="3.67" height="0.5"/><rect class="cls-1" x="11.33" y="17.14" width="0.73" height="0.5"/><rect class="cls-1" x="13.53" y="17.14" width="2.94" height="0.5"/></svg>