<svg id="Layer_1" data-name="Layer 1" xmlns="http://www.w3.org/2000/svg" viewBox="0 0 24 24"><defs><style>.cls-1{fill:#fff;}</style></defs><path id="twitter" class="cls-1" d="M24,4.83l-1.65.08.9-2.54s-2.79,1-3.5,1.21a5.6,5.6,0,0,0-6.59-.53A4.53,4.53,0,0,0,11,7.72,12.15,12.15,0,0,1,3.07,3.3L2.4,2.51l-.49.9a5.48,5.48,0,0,0-.59,3.68,5.64,5.64,0,0,0,.52,1.44l-.57-.22-.07.94a5.06,5.06,0,0,0,.86,3,5.33,5.33,0,0,0,.67.82l-.29,0,.35,1.08a5.24,5.24,0,0,0,2.72,3.13c-1.27.54-2.29.88-4,1.43L0,19.18,1.42,20a15,15,0,0,0,4.35,1.58c4.21.65,9,.12,12.14-2.74,2.68-2.41,3.57-5.83,3.38-9.4a2.27,2.27,0,0,1,.42-1.45C22.31,7.15,24,4.84,24,4.83ZM20.59,7.1a3.58,3.58,0,0,0-.7,2.36c.18,3.6-.8,6.39-2.92,8.29-2.48,2.22-6.48,3.1-11,2.4a11.16,11.16,0,0,1-2.35-.7A38.43,38.43,0,0,0,7.9,17.71l2.45-1.16-2.71-.17a3.87,3.87,0,0,1-3-1.73,5.15,5.15,0,0,0,1-.17l2.59-.72-2.61-.64a3.93,3.93,0,0,1-2.89-2.77,6.33,6.33,0,0,0,1.06.17l2.41.24L4.28,9.27A4,4,0,0,1,2.76,5.05a14,14,0,0,0,9.85,4.22,7.91,7.91,0,0,0-.14-1.18,3.21,3.21,0,0,1,1.42-3.85,4.23,4.23,0,0,1,5,.41A1.25,1.25,0,0,0,20,5c.32-.08.64-.18.95-.29l-.6,1.72h.77Z"/></svg>