<svg id="Layer_1" data-name="Layer 1" xmlns="http://www.w3.org/2000/svg" viewBox="0 0 24 24"><defs><style>.cls-1{fill:#fff;}</style></defs><g id="noun_youtube_897676" data-name="noun youtube 897676"><g id="Rectangle_397" data-name="Rectangle 397"><path class="cls-1" d="M20.52,20.59h-17A3.48,3.48,0,0,1,0,17.11V6.89A3.48,3.48,0,0,1,3.48,3.41h17A3.48,3.48,0,0,1,24,6.89V17.11A3.48,3.48,0,0,1,20.52,20.59ZM3.48,5.25A1.64,1.64,0,0,0,1.85,6.89V17.11a1.64,1.64,0,0,0,1.63,1.64h17a1.64,1.64,0,0,0,1.63-1.64V6.89a1.64,1.64,0,0,0-1.63-1.64Z"/></g><g id="Path_150" data-name="Path 150"><path class="cls-1" d="M16.26,12l-3.32,1.7L9.61,15.41V8.59l3.33,1.7Z"/></g></g></svg>